# xmcd CD database file
#
# Track frame offsets:
#	150
#	13183
#	23989
#	40688
#	51332
#	67260
#	76610
#	91544
#	101731
#	116741
#	128336
#	140235
#	156445
#	170926
#
# Disc length: 2450 seconds
#
# Revision: 1
# Processed by: cddbd v1.4PL0 Copyright (c) Steve Scherf et al.
# Submitted via: NotifyCDPlayer 1.60beta13
#
DISCID=be09900e
DTITLE=Will Derryberry - Roots
DYEAR=1900
DGENRE=
TTITLE0=Upstanding Man
TTITLE1=Some People Don't Know
TTITLE2=Hallelujah In My Life
TTITLE3=Every Beat
TTITLE4=Heaven
TTITLE5=Dream With Me
TTITLE6=Day and Night (The Way You Care)
TTITLE7=What Do You Think
TTITLE8=Find that River
TTITLE9=Ride With Me
TTITLE10=Got A Feeling
TTITLE11=Climbing Higher Mountains
TTITLE12=Tell Me What Kind of Man Jesus Is
TTITLE13=Malted Milk Blues
EXTD=
EXTT0=
EXTT1=
EXTT2=
EXTT3=
EXTT4=
EXTT5=
EXTT6=
EXTT7=
EXTT8=
EXTT9=
EXTT10=
EXTT11=
EXTT12=
EXTT13=
PLAYORDER=
